<svg width="16" height="16" viewBox="0 0 16 16" fill="none" xmlns="http://www.w3.org/2000/svg">
<path fill-rule="evenodd" clip-rule="evenodd" d="M12 5.99999C11.97 5.99999 11.93 6 11.9 6.01C11.6534 4.79569 10.9647 3.71619 9.96749 2.98079C8.97022 2.24539 7.73542 1.90649 6.50248 2.02978C5.26954 2.15308 4.1263 2.72979 3.2944 3.6481C2.46251 4.56641 2.00123 5.76091 2 7C2 7.11 2.01 7.22 2.02 7.33C1.4174 7.61251 0.907547 8.06053 0.549893 8.6218C0.192239 9.18307 0.00152714 9.83446 0 10.5C0 12.43 1.57 14 3.5 14H12C14.21 14 16 12.21 16 10C16 7.79 14.21 5.99999 12 5.99999Z" fill="#5F6B7C"/>
</svg>
