<svg width="16" height="16" viewBox="0 0 16 16" fill="none" xmlns="http://www.w3.org/2000/svg">
<path fill-rule="evenodd" clip-rule="evenodd" d="M3.50002 8.00003C3.14622 7.99943 2.79658 7.92374 2.47421 7.77796C2.15183 7.63219 1.86408 7.41965 1.62995 7.1544C1.39583 6.88914 1.22067 6.57722 1.11606 6.23924C1.01144 5.90126 0.979761 5.54492 1.0231 5.19379C1.06644 4.84266 1.18381 4.50472 1.36747 4.20232C1.55112 3.89992 1.79686 3.63994 2.08846 3.43958C2.38005 3.23921 2.71085 3.10302 3.059 3.04001C3.40714 2.97699 3.76469 2.98859 4.10802 3.07403C4.29517 2.2914 4.71391 1.58337 5.30958 1.04235C5.90525 0.501321 6.65019 0.152433 7.44716 0.0412174C8.24413 -0.0699981 9.05612 0.061625 9.77715 0.418908C10.4982 0.776191 11.0948 1.34254 11.489 2.04403C11.8986 1.9731 12.3184 1.98806 12.7219 2.08795C13.1254 2.18784 13.5037 2.37048 13.8328 2.6243C14.162 2.87812 14.4348 3.19757 14.634 3.56239C14.8332 3.92721 14.9544 4.32945 14.99 4.74358C15.0255 5.15772 14.9746 5.57472 14.8404 5.96815C14.7063 6.36157 14.4919 6.72282 14.2108 7.029C13.9296 7.33517 13.588 7.57959 13.2074 7.74675C12.8268 7.91391 12.4157 8.00016 12 8.00003H3.50102H3.50002ZM3.00002 10C3.00002 9.73481 3.10537 9.48046 3.29291 9.29292C3.48045 9.10539 3.7348 9.00003 4.00002 9.00003C4.26523 9.00003 4.51959 9.10539 4.70712 9.29292C4.89466 9.48046 5.00002 9.73481 5.00002 10V14C5.00002 14.2652 4.89466 14.5196 4.70712 14.7071C4.51959 14.8947 4.26523 15 4.00002 15C3.7348 15 3.48045 14.8947 3.29291 14.7071C3.10537 14.5196 3.00002 14.2652 3.00002 14V10ZM10 9.00003C9.7348 9.00003 9.48045 9.10539 9.29291 9.29292C9.10537 9.48046 9.00002 9.73481 9.00002 10V15C9.00002 15.2652 9.10537 15.5196 9.29291 15.7071C9.48045 15.8947 9.7348 16 10 16C10.2652 16 10.5196 15.8947 10.7071 15.7071C10.8947 15.5196 11 15.2652 11 15V10C11 9.73481 10.8947 9.48046 10.7071 9.29292C10.5196 9.10539 10.2652 9.00003 10 9.00003ZM12 10C12 9.73481 12.1054 9.48046 12.2929 9.29292C12.4804 9.10539 12.7348 9.00003 13 9.00003C13.2652 9.00003 13.5196 9.10539 13.7071 9.29292C13.8947 9.48046 14 9.73481 14 10V12C14 12.2652 13.8947 12.5196 13.7071 12.7071C13.5196 12.8947 13.2652 13 13 13C12.7348 13 12.4804 12.8947 12.2929 12.7071C12.1054 12.5196 12 12.2652 12 12V10ZM7.00002 9.00003C6.7348 9.00003 6.48045 9.10539 6.29291 9.29292C6.10537 9.48046 6.00002 9.73481 6.00002 10V12C6.00002 12.2652 6.10537 12.5196 6.29291 12.7071C6.48045 12.8947 6.7348 13 7.00002 13C7.26523 13 7.51959 12.8947 7.70712 12.7071C7.89466 12.5196 8.00002 12.2652 8.00002 12V10C8.00002 9.73481 7.89466 9.48046 7.70712 9.29292C7.51959 9.10539 7.26523 9.00003 7.00002 9.00003Z" fill="#5F6B7C"/>
</svg>
