<svg width="16" height="16" viewBox="0 0 16 16" fill="none" xmlns="http://www.w3.org/2000/svg">
<path fill-rule="evenodd" clip-rule="evenodd" d="M8 11H7V12H8V11ZM4 11H3V12H4V11ZM11 3C11.6 3 12 2.5 12 2V1C12 0.5 11.6 0 11 0C10.4 0 10 0.5 10 1V2C10 2.5 10.5 3 11 3ZM4 3C4.5 3 5 2.5 5 2V1C5 0.5 4.5 0 4 0C3.5 0 3 0.5 3 1V2C3 2.5 3.5 3 4 3ZM14 1H13V2C13 3.1 12.1 4 11 4C9.9 4 9 3.1 9 2V1H6V2C6 3.1 5.1 4 4 4C2.9 4 2 3.1 2 2V1H1C0.5 1 0 1.5 0 2V14C0 14.5 0.5 15 1 15H14C14.6 15 15 14.5 15 14V2C15 1.5 14.6 1 14 1ZM5 13H2V10H5V13ZM5 9H2V6H5V9ZM9 13H6V10H9V13ZM9 9H6V6H9V9ZM13 13H10V10H13V13ZM13 9H10V6H13V9ZM12 7H11V8H12V7Z" fill="#5F6B7C"/>
</svg>
