<svg width="17" height="17" viewBox="0 0 17 17"  xmlns="http://www.w3.org/2000/svg">
<path fill-rule="evenodd" clip-rule="evenodd" d="M16.19 7.38999H14.34C14.23 7.01999 14.07 6.67999 13.89 6.34999L15.25 4.98999C15.56 4.67999 15.56 4.16999 15.25 3.85999L14.12 2.72999C13.9696 2.58111 13.7666 2.49759 13.555 2.49759C13.3434 2.49759 13.1404 2.58111 12.99 2.72999L11.63 4.08999C11.3 3.91999 10.96 3.75999 10.59 3.64999V1.78999C10.59 1.34999 10.23 0.98999 9.79 0.98999H8.19C7.75 0.98999 7.39 1.34999 7.39 1.78999V3.64999C7 3.76999 6.64 3.92999 6.29 4.11999L4.99 2.81999C4.69 2.51999 4.2 2.51999 3.9 2.81999L2.82 3.90999C2.52 4.20999 2.52 4.69999 2.82 4.99999L4.12 6.29999C3.92 6.63999 3.76 6.99999 3.64 7.38999H1.79C1.35 7.38999 0.990002 7.74999 0.990002 8.18999V9.78999C0.990002 10.23 1.35 10.59 1.79 10.59H3.64C3.75 10.96 3.91 11.3 4.09 11.63L2.73 12.99C2.42 13.3 2.42 13.81 2.73 14.12L3.86 15.25C4.17 15.56 4.68 15.56 4.99 15.25L6.35 13.89C6.68 14.07 7.02 14.22 7.39 14.33V16.19C7.39 16.63 7.75 16.99 8.19 16.99H9.79C10.23 16.99 10.59 16.63 10.59 16.19V14.33C10.98 14.21 11.34 14.05 11.69 13.86L12.99 15.16C13.29 15.46 13.78 15.46 14.08 15.16L15.17 14.07C15.47 13.77 15.47 13.28 15.17 12.98L13.87 11.68C14.06 11.33 14.23 10.97 14.35 10.58H16.2C16.64 10.58 17 10.22 17 9.77999V8.17999C16.9933 7.96915 16.9052 7.76909 16.7542 7.62181C16.6031 7.47452 16.4009 7.39143 16.19 7.38999ZM8.99 11.99C7.33 11.99 5.99 10.65 5.99 8.98999C5.99 7.32999 7.33 5.98999 8.99 5.98999C10.65 5.98999 11.99 7.32999 11.99 8.98999C11.99 10.65 10.65 11.99 8.99 11.99Z" fill="#5F6B7C"/>
</svg>
